<svg xmlns="http://www.w3.org/2000/svg" width="30.332" height="30.384" viewBox="0 0 30.332 30.384">
  <path id="Trazado_75" data-name="Trazado 75" d="M1243.478,688.587V676.9h3.943l.623-4.732H1243.6c0-1.342-.085-2.625.031-3.89.073-.8.745-1.167,1.749-1.206.773-.03,1.549-.027,2.323,0,.437.015.574-.154.563-.576-.028-1.056,0-2.113-.052-3.167-.009-.188-.287-.512-.45-.518a27.487,27.487,0,0,0-4.421-.03c-2.993.38-4.69,2.595-4.748,5.925-.019,1.12,0,2.241,0,3.424h-3.926v4.714h3.864v11.679a3.816,3.816,0,0,1-.5.068c-2.934,0-5.868.032-8.8-.019a6.738,6.738,0,0,1-6.669-5.722,6.264,6.264,0,0,1-.076-1.051c0-5.563-.017-11.126.009-16.688a6.741,6.741,0,0,1,6.932-6.877c4.2-.027,8.4-.017,12.6-.006,1.641,0,3.294-.058,4.921.108a6.635,6.635,0,0,1,5.835,6.468q.05,8.626.006,17.252a6.77,6.77,0,0,1-6.575,6.527C1245.305,688.612,1244.4,688.587,1243.478,688.587Z" transform="translate(-1222.476 -658.216)" fill="#1d28aa"/>
</svg>
